<svg width="118" height="17" viewBox="0 0 118 17" fill="none" xmlns="http://www.w3.org/2000/svg">
<path d="M1.86816 0.359375H4.59668L8.61426 11.8428L12.6318 0.359375H15.3604L9.70996 16H7.51855L1.86816 0.359375ZM0.396484 0.359375H3.11426L3.6084 11.5527V16H0.396484V0.359375ZM14.1143 0.359375H16.8428V16H13.6201V11.5527L14.1143 0.359375ZM30.1631 13.4863V16H21.8379V13.4863H30.1631ZM22.8906 0.359375V16H19.668V0.359375H22.8906ZM29.0781 6.72949V9.17871H21.8379V6.72949H29.0781ZM30.1523 0.359375V2.88379H21.8379V0.359375H30.1523ZM44.4395 7.8252V14.0234C44.196 14.3171 43.82 14.6357 43.3115 14.9795C42.8031 15.3161 42.1478 15.6061 41.3457 15.8496C40.5436 16.0931 39.5732 16.2148 38.4346 16.2148C37.4248 16.2148 36.5046 16.0501 35.6738 15.7207C34.8431 15.3841 34.127 14.8936 33.5254 14.249C32.931 13.6045 32.4727 12.8167 32.1504 11.8857C31.8281 10.9476 31.667 9.87695 31.667 8.67383V7.69629C31.667 6.49316 31.821 5.42253 32.1289 4.48438C32.444 3.54622 32.8916 2.75488 33.4717 2.11035C34.0518 1.46582 34.7428 0.97526 35.5449 0.638672C36.347 0.302083 37.2386 0.133789 38.2197 0.133789C39.5804 0.133789 40.6976 0.355794 41.5713 0.799805C42.445 1.23665 43.111 1.84538 43.5693 2.62598C44.0348 3.39941 44.3213 4.28743 44.4287 5.29004H41.3027C41.224 4.76009 41.0736 4.29818 40.8516 3.9043C40.6296 3.51042 40.3109 3.20247 39.8955 2.98047C39.4873 2.75846 38.9574 2.64746 38.3057 2.64746C37.7686 2.64746 37.2887 2.75846 36.8662 2.98047C36.4508 3.19531 36.0999 3.514 35.8135 3.93652C35.527 4.35905 35.3086 4.88184 35.1582 5.50488C35.0078 6.12793 34.9326 6.85124 34.9326 7.6748V8.67383C34.9326 9.49023 35.0114 10.2135 35.1689 10.8438C35.3265 11.4668 35.5592 11.9932 35.8672 12.4229C36.1823 12.8454 36.569 13.1641 37.0273 13.3789C37.4857 13.5938 38.0192 13.7012 38.6279 13.7012C39.1364 13.7012 39.5589 13.6582 39.8955 13.5723C40.2393 13.4863 40.515 13.3825 40.7227 13.2607C40.9375 13.1318 41.1022 13.0101 41.2168 12.8955V10.124H38.2734V7.8252H44.4395ZM53.3984 3.03418L49.1445 16H45.7178L51.5293 0.359375H53.71L53.3984 3.03418ZM56.9326 16L52.668 3.03418L52.3242 0.359375H54.5264L60.3701 16H56.9326ZM56.7393 10.1777V12.7021H48.4785V10.1777H56.7393ZM61.7773 14.5068C61.7773 14.0485 61.9349 13.6654 62.25 13.3574C62.5723 13.0495 62.9984 12.8955 63.5283 12.8955C64.0583 12.8955 64.4808 13.0495 64.7959 13.3574C65.1182 13.6654 65.2793 14.0485 65.2793 14.5068C65.2793 14.9652 65.1182 15.3483 64.7959 15.6562C64.4808 15.9642 64.0583 16.1182 63.5283 16.1182C62.9984 16.1182 62.5723 15.9642 62.25 15.6562C61.9349 15.3483 61.7773 14.9652 61.7773 14.5068ZM71.0371 6.8584V16H67.9434V4.37695H70.8438L71.0371 6.8584ZM70.5859 9.78027H69.748C69.748 8.9209 69.859 8.14746 70.0811 7.45996C70.3031 6.7653 70.6146 6.17448 71.0156 5.6875C71.4167 5.19336 71.8929 4.81738 72.4443 4.55957C73.0029 4.2946 73.626 4.16211 74.3135 4.16211C74.8577 4.16211 75.3555 4.24089 75.8066 4.39844C76.2578 4.55599 76.6445 4.80664 76.9668 5.15039C77.2962 5.49414 77.5469 5.94889 77.7188 6.51465C77.8978 7.0804 77.9873 7.77148 77.9873 8.58789V16H74.8721V8.57715C74.8721 8.06152 74.8005 7.66048 74.6572 7.37402C74.514 7.08757 74.3027 6.88704 74.0234 6.77246C73.7513 6.65072 73.4147 6.58984 73.0137 6.58984C72.5983 6.58984 72.2367 6.6722 71.9287 6.83691C71.6279 7.00163 71.3773 7.23079 71.1768 7.52441C70.9834 7.81087 70.8366 8.14746 70.7363 8.53418C70.6361 8.9209 70.5859 9.33626 70.5859 9.78027ZM85.6895 16.2148C84.7871 16.2148 83.9779 16.0716 83.2617 15.7852C82.5456 15.4915 81.9368 15.0869 81.4355 14.5713C80.9414 14.0557 80.5618 13.4577 80.2969 12.7773C80.0319 12.0898 79.8994 11.3594 79.8994 10.5859V10.1562C79.8994 9.27539 80.0247 8.46973 80.2754 7.73926C80.526 7.00879 80.8841 6.375 81.3496 5.83789C81.8223 5.30078 82.3952 4.889 83.0684 4.60254C83.7415 4.30892 84.5007 4.16211 85.3457 4.16211C86.1693 4.16211 86.8997 4.29818 87.5371 4.57031C88.1745 4.84245 88.708 5.22917 89.1377 5.73047C89.5745 6.23177 89.904 6.83333 90.126 7.53516C90.348 8.22982 90.459 9.00326 90.459 9.85547V11.1445H81.2207V9.08203H87.4189V8.8457C87.4189 8.41602 87.3402 8.03288 87.1826 7.69629C87.0322 7.35254 86.8031 7.0804 86.4951 6.87988C86.1872 6.67936 85.7933 6.5791 85.3135 6.5791C84.9053 6.5791 84.5544 6.66862 84.2607 6.84766C83.9671 7.02669 83.7272 7.27734 83.541 7.59961C83.362 7.92188 83.2259 8.30143 83.1328 8.73828C83.0469 9.16797 83.0039 9.64062 83.0039 10.1562V10.5859C83.0039 11.0514 83.0684 11.4811 83.1973 11.875C83.3333 12.2689 83.5231 12.609 83.7666 12.8955C84.0173 13.182 84.318 13.404 84.6689 13.5615C85.027 13.7191 85.4316 13.7979 85.8828 13.7979C86.4414 13.7979 86.9606 13.6904 87.4404 13.4756C87.9274 13.2536 88.3464 12.9206 88.6973 12.4766L90.2012 14.1094C89.9577 14.4603 89.6247 14.7969 89.2021 15.1191C88.7868 15.4414 88.2855 15.7064 87.6982 15.9141C87.111 16.1146 86.4414 16.2148 85.6895 16.2148ZM95.54 12.9922L97.957 4.37695H99.9229L99.2891 7.76074L96.8721 16H95.2285L95.54 12.9922ZM94.3154 4.37695L96.0449 12.9814L96.2061 16H94.2725L91.3291 4.37695H94.3154ZM102.136 12.8418L103.822 4.37695H106.819L103.876 16H101.953L102.136 12.8418ZM100.191 4.37695L102.598 12.9277L102.931 16H101.276L98.8594 7.77148L98.2471 4.37695H100.191ZM114.661 12.7881C114.661 12.5661 114.597 12.3656 114.468 12.1865C114.339 12.0075 114.099 11.8428 113.748 11.6924C113.404 11.5348 112.907 11.3916 112.255 11.2627C111.668 11.1338 111.12 10.9727 110.611 10.7793C110.11 10.5788 109.673 10.3389 109.301 10.0596C108.936 9.78027 108.649 9.45085 108.441 9.07129C108.234 8.68457 108.13 8.24414 108.13 7.75C108.13 7.26302 108.234 6.80469 108.441 6.375C108.656 5.94531 108.961 5.56576 109.354 5.23633C109.756 4.89974 110.243 4.63835 110.815 4.45215C111.396 4.25879 112.047 4.16211 112.771 4.16211C113.78 4.16211 114.647 4.32324 115.37 4.64551C116.101 4.96777 116.659 5.41178 117.046 5.97754C117.44 6.53613 117.637 7.1735 117.637 7.88965H114.543C114.543 7.58887 114.479 7.32031 114.35 7.08398C114.228 6.84049 114.035 6.65072 113.77 6.51465C113.512 6.37142 113.175 6.2998 112.76 6.2998C112.416 6.2998 112.119 6.36068 111.868 6.48242C111.618 6.59701 111.424 6.75456 111.288 6.95508C111.159 7.14844 111.095 7.36328 111.095 7.59961C111.095 7.77865 111.131 7.93978 111.202 8.08301C111.281 8.21908 111.406 8.3444 111.578 8.45898C111.75 8.57357 111.972 8.68099 112.244 8.78125C112.523 8.87435 112.867 8.96029 113.275 9.03906C114.113 9.21094 114.862 9.43652 115.521 9.71582C116.179 9.98796 116.702 10.3604 117.089 10.833C117.476 11.2985 117.669 11.9108 117.669 12.6699C117.669 13.1855 117.554 13.6582 117.325 14.0879C117.096 14.5176 116.767 14.8936 116.337 15.2158C115.907 15.5309 115.392 15.778 114.79 15.957C114.196 16.1289 113.526 16.2148 112.781 16.2148C111.7 16.2148 110.783 16.0215 110.031 15.6348C109.286 15.248 108.721 14.7575 108.334 14.1631C107.954 13.5615 107.765 12.9456 107.765 12.3154H110.697C110.712 12.738 110.819 13.0781 111.02 13.3359C111.227 13.5938 111.489 13.7799 111.804 13.8945C112.126 14.0091 112.473 14.0664 112.846 14.0664C113.247 14.0664 113.58 14.0127 113.845 13.9053C114.11 13.7907 114.31 13.6403 114.446 13.4541C114.59 13.2607 114.661 13.0387 114.661 12.7881Z" fill="#FC4308"/>
</svg>
